<mxfile host="app.diagrams.net" modified="2023-11-13T10:25:15.476Z" agent="Mozilla/5.0 (X11; Linux x86_64; rv:109.0) Gecko/20100101 Firefox/117.0" version="22.1.0" etag="hZkpEGqEPyQ3Q-Et45Az" type="github">
  <diagram name="PÃ¡gina-1" id="555xv_cblAD2HZFXGSdk">
    <mxGraphModel>
      <root>
        <mxCell id="0" />
        <mxCell id="1" parent="0" />
      </root>
    </mxGraphModel>
  </diagram>
</mxfile>
